<svg xmlns="http://www.w3.org/2000/svg" xmlns:ev="http://www.w3.org/2001/xml-events" xmlns:xlink="http://www.w3.org/1999/xlink" baseProfile="full" height="512" version="1.1" viewBox="0 0 512 512" width="512"><defs/><path d="M 90,228 L 89,229 L 88,229 L 85,232 L 85,234 L 84,235 L 84,265 L 85,266 L 85,271 L 86,272 L 86,274 L 87,275 L 87,276 L 88,277 L 88,278 L 95,285 L 96,285 L 98,287 L 99,287 L 100,288 L 101,288 L 102,289 L 107,289 L 108,290 L 123,290 L 124,291 L 129,291 L 130,292 L 134,292 L 135,293 L 138,293 L 139,294 L 141,294 L 142,295 L 145,295 L 146,296 L 148,296 L 149,297 L 151,297 L 152,298 L 153,298 L 154,299 L 155,299 L 156,300 L 157,300 L 158,301 L 159,301 L 160,302 L 161,302 L 162,303 L 163,303 L 164,304 L 165,304 L 166,305 L 167,305 L 169,307 L 170,307 L 172,309 L 173,309 L 175,311 L 176,311 L 180,315 L 181,315 L 195,329 L 195,330 L 199,334 L 199,335 L 202,338 L 202,339 L 203,340 L 203,341 L 205,343 L 205,344 L 207,346 L 207,347 L 208,348 L 208,349 L 209,350 L 209,351 L 210,352 L 210,353 L 211,354 L 211,355 L 212,356 L 212,358 L 213,359 L 213,361 L 214,362 L 214,363 L 215,364 L 215,366 L 216,367 L 216,370 L 217,371 L 217,373 L 218,374 L 218,378 L 219,379 L 219,384 L 220,385 L 220,392 L 221,393 L 221,406 L 222,407 L 222,409 L 223,410 L 223,412 L 225,414 L 225,415 L 232,422 L 233,422 L 234,423 L 235,423 L 236,424 L 238,424 L 239,425 L 241,425 L 242,426 L 278,426 L 279,425 L 280,425 L 281,424 L 281,423 L 282,422 L 282,383 L 281,382 L 281,373 L 280,372 L 280,369 L 279,368 L 279,364 L 278,363 L 278,359 L 277,358 L 277,355 L 276,354 L 276,352 L 275,351 L 275,349 L 274,348 L 274,345 L 273,344 L 273,343 L 272,342 L 272,340 L 271,339 L 271,338 L 270,337 L 270,335 L 269,334 L 269,333 L 268,332 L 268,331 L 267,330 L 267,328 L 266,327 L 266,326 L 265,325 L 265,324 L 264,323 L 264,322 L 263,321 L 263,320 L 262,319 L 262,318 L 260,316 L 260,315 L 259,314 L 259,313 L 258,312 L 258,311 L 256,309 L 256,308 L 254,306 L 254,305 L 252,303 L 252,302 L 249,299 L 249,298 L 246,295 L 246,294 L 243,291 L 243,290 L 234,281 L 234,280 L 230,276 L 229,276 L 222,269 L 221,269 L 216,264 L 215,264 L 212,261 L 211,261 L 208,258 L 207,258 L 206,257 L 205,257 L 203,255 L 202,255 L 200,253 L 199,253 L 198,252 L 197,252 L 195,250 L 194,250 L 193,249 L 192,249 L 191,248 L 190,248 L 189,247 L 188,247 L 187,246 L 186,246 L 185,245 L 184,245 L 183,244 L 182,244 L 181,243 L 180,243 L 179,242 L 177,242 L 176,241 L 175,241 L 174,240 L 172,240 L 171,239 L 170,239 L 169,238 L 167,238 L 166,237 L 164,237 L 163,236 L 160,236 L 159,235 L 157,235 L 156,234 L 154,234 L 153,233 L 149,233 L 148,232 L 145,232 L 144,231 L 139,231 L 138,230 L 133,230 L 132,229 L 121,229 L 120,228 Z" fill="white"/><path d="M 89,157 L 88,158 L 87,158 L 86,159 L 86,160 L 85,161 L 85,215 L 88,218 L 89,218 L 90,219 L 127,219 L 128,220 L 136,220 L 137,221 L 142,221 L 143,222 L 147,222 L 148,223 L 152,223 L 153,224 L 156,224 L 157,225 L 159,225 L 160,226 L 162,226 L 163,227 L 166,227 L 167,228 L 169,228 L 170,229 L 172,229 L 173,230 L 174,230 L 175,231 L 177,231 L 178,232 L 180,232 L 181,233 L 182,233 L 183,234 L 184,234 L 185,235 L 186,235 L 187,236 L 188,236 L 189,237 L 191,237 L 192,238 L 193,238 L 194,239 L 195,239 L 197,241 L 198,241 L 199,242 L 200,242 L 201,243 L 202,243 L 204,245 L 205,245 L 206,246 L 207,246 L 209,248 L 210,248 L 212,250 L 213,250 L 216,253 L 217,253 L 219,255 L 220,255 L 224,259 L 225,259 L 230,264 L 231,264 L 247,280 L 247,281 L 252,286 L 252,287 L 255,290 L 255,291 L 258,294 L 258,295 L 261,298 L 261,299 L 263,301 L 263,302 L 265,304 L 265,305 L 266,306 L 266,307 L 268,309 L 268,310 L 269,311 L 269,312 L 270,313 L 270,314 L 271,315 L 271,316 L 272,317 L 272,318 L 273,319 L 273,320 L 274,321 L 274,322 L 275,323 L 275,324 L 276,325 L 276,326 L 277,327 L 277,328 L 278,329 L 278,331 L 279,332 L 279,333 L 280,334 L 280,336 L 281,337 L 281,339 L 282,340 L 282,341 L 283,342 L 283,344 L 284,345 L 284,348 L 285,349 L 285,351 L 286,352 L 286,354 L 287,355 L 287,359 L 288,360 L 288,364 L 289,365 L 289,369 L 290,370 L 290,374 L 291,375 L 291,387 L 292,388 L 292,421 L 293,422 L 293,423 L 295,425 L 296,425 L 297,426 L 349,426 L 350,425 L 351,425 L 353,423 L 353,422 L 354,421 L 354,385 L 353,384 L 353,375 L 352,374 L 352,368 L 351,367 L 351,361 L 350,360 L 350,355 L 349,354 L 349,350 L 348,349 L 348,345 L 347,344 L 347,341 L 346,340 L 346,337 L 345,336 L 345,334 L 344,333 L 344,331 L 343,330 L 343,327 L 342,326 L 342,324 L 341,323 L 341,321 L 340,320 L 340,318 L 339,317 L 339,315 L 338,314 L 338,313 L 337,312 L 337,311 L 336,310 L 336,308 L 335,307 L 335,305 L 333,303 L 333,301 L 332,300 L 332,299 L 331,298 L 331,297 L 330,296 L 330,295 L 329,294 L 329,293 L 328,292 L 328,290 L 326,288 L 326,287 L 325,286 L 325,285 L 324,284 L 324,283 L 322,281 L 322,279 L 320,277 L 320,276 L 318,274 L 318,273 L 317,272 L 317,271 L 315,269 L 315,268 L 313,266 L 313,265 L 312,264 L 312,263 L 309,260 L 309,259 L 307,257 L 307,256 L 303,252 L 303,251 L 299,247 L 299,246 L 294,241 L 294,240 L 270,216 L 269,216 L 264,211 L 263,211 L 259,207 L 258,207 L 255,204 L 254,204 L 251,201 L 250,201 L 249,200 L 248,200 L 245,197 L 244,197 L 243,196 L 242,196 L 240,194 L 239,194 L 237,192 L 236,192 L 234,190 L 233,190 L 232,189 L 231,189 L 230,188 L 229,188 L 228,187 L 227,187 L 226,186 L 225,186 L 224,185 L 223,185 L 221,183 L 220,183 L 219,182 L 218,182 L 217,181 L 216,181 L 215,180 L 213,180 L 212,179 L 211,179 L 210,178 L 209,178 L 208,177 L 207,177 L 206,176 L 205,176 L 204,175 L 202,175 L 201,174 L 199,174 L 198,173 L 197,173 L 196,172 L 194,172 L 193,171 L 191,171 L 190,170 L 189,170 L 188,169 L 185,169 L 184,168 L 182,168 L 181,167 L 178,167 L 177,166 L 176,166 L 175,165 L 172,165 L 171,164 L 167,164 L 166,163 L 163,163 L 162,162 L 159,162 L 158,161 L 153,161 L 152,160 L 146,160 L 145,159 L 139,159 L 138,158 L 129,158 L 128,157 Z" fill="white"/><path d="M 104,86 L 103,87 L 101,87 L 100,88 L 99,88 L 98,89 L 97,89 L 95,91 L 94,91 L 91,94 L 91,95 L 88,98 L 88,99 L 87,100 L 87,101 L 86,102 L 86,104 L 85,105 L 85,143 L 86,144 L 86,145 L 88,147 L 117,147 L 118,148 L 134,148 L 135,149 L 143,149 L 144,150 L 150,150 L 151,151 L 156,151 L 157,152 L 161,152 L 162,153 L 165,153 L 166,154 L 170,154 L 171,155 L 174,155 L 175,156 L 177,156 L 178,157 L 181,157 L 182,158 L 184,158 L 185,159 L 187,159 L 188,160 L 190,160 L 191,161 L 193,161 L 194,162 L 196,162 L 197,163 L 199,163 L 200,164 L 202,164 L 203,165 L 204,165 L 205,166 L 207,166 L 208,167 L 209,167 L 210,168 L 211,168 L 212,169 L 214,169 L 215,170 L 216,170 L 217,171 L 218,171 L 219,172 L 220,172 L 221,173 L 222,173 L 223,174 L 224,174 L 225,175 L 226,175 L 227,176 L 228,176 L 229,177 L 230,177 L 232,179 L 233,179 L 234,180 L 235,180 L 236,181 L 237,181 L 239,183 L 240,183 L 241,184 L 242,184 L 244,186 L 245,186 L 246,187 L 247,187 L 250,190 L 251,190 L 252,191 L 253,191 L 256,194 L 257,194 L 259,196 L 260,196 L 263,199 L 264,199 L 268,203 L 269,203 L 273,207 L 274,207 L 283,216 L 284,216 L 291,223 L 291,224 L 292,224 L 294,226 L 294,227 L 303,236 L 303,237 L 308,242 L 308,243 L 312,247 L 312,248 L 314,250 L 314,251 L 317,254 L 317,255 L 320,258 L 320,259 L 321,260 L 321,261 L 323,263 L 323,264 L 325,266 L 325,267 L 327,269 L 327,270 L 328,271 L 328,272 L 329,273 L 329,274 L 331,276 L 331,277 L 332,278 L 332,279 L 334,281 L 334,283 L 336,285 L 336,286 L 337,287 L 337,288 L 338,289 L 338,290 L 339,291 L 339,293 L 340,294 L 340,295 L 341,296 L 341,297 L 342,298 L 342,299 L 343,300 L 343,302 L 344,303 L 344,304 L 345,305 L 345,306 L 346,307 L 346,309 L 347,310 L 347,312 L 348,313 L 348,314 L 349,315 L 349,318 L 350,319 L 350,320 L 351,321 L 351,323 L 352,324 L 352,326 L 353,327 L 353,330 L 354,331 L 354,334 L 355,335 L 355,337 L 356,338 L 356,341 L 357,342 L 357,346 L 358,347 L 358,350 L 359,351 L 359,355 L 360,356 L 360,363 L 361,364 L 361,370 L 362,371 L 362,377 L 363,378 L 363,419 L 364,420 L 364,423 L 366,425 L 367,425 L 368,426 L 404,426 L 405,425 L 407,425 L 408,424 L 410,424 L 411,423 L 412,423 L 414,421 L 415,421 L 421,415 L 421,414 L 422,413 L 422,412 L 423,411 L 423,410 L 424,409 L 424,406 L 425,405 L 425,382 L 424,381 L 424,369 L 423,368 L 423,360 L 422,359 L 422,352 L 421,351 L 421,347 L 420,346 L 420,341 L 419,340 L 419,336 L 418,335 L 418,331 L 417,330 L 417,327 L 416,326 L 416,323 L 415,322 L 415,319 L 414,318 L 414,316 L 413,315 L 413,312 L 412,311 L 412,308 L 411,307 L 411,305 L 410,304 L 410,303 L 409,302 L 409,300 L 408,299 L 408,297 L 407,296 L 407,294 L 406,293 L 406,291 L 405,290 L 405,288 L 404,287 L 404,286 L 403,285 L 403,284 L 402,283 L 402,281 L 401,280 L 401,278 L 400,277 L 400,276 L 399,275 L 399,274 L 398,273 L 398,272 L 397,271 L 397,269 L 395,267 L 395,265 L 394,264 L 394,263 L 393,262 L 393,261 L 392,260 L 392,259 L 391,258 L 391,257 L 390,256 L 390,255 L 389,254 L 389,253 L 388,252 L 388,251 L 386,249 L 386,248 L 385,247 L 385,246 L 384,245 L 384,244 L 383,243 L 383,242 L 381,240 L 381,239 L 380,238 L 380,237 L 378,235 L 378,234 L 376,232 L 376,231 L 375,230 L 375,229 L 372,226 L 372,225 L 370,223 L 370,222 L 368,220 L 368,219 L 366,217 L 366,216 L 363,213 L 363,212 L 360,209 L 360,208 L 356,204 L 356,203 L 351,198 L 351,197 L 346,192 L 346,191 L 319,164 L 318,164 L 314,160 L 313,160 L 307,154 L 306,154 L 303,151 L 302,151 L 299,148 L 298,148 L 295,145 L 294,145 L 292,143 L 291,143 L 288,140 L 287,140 L 285,138 L 284,138 L 282,136 L 281,136 L 280,135 L 279,135 L 277,133 L 276,133 L 274,131 L 273,131 L 272,130 L 271,130 L 269,128 L 268,128 L 267,127 L 266,127 L 264,125 L 263,125 L 262,124 L 261,124 L 260,123 L 259,123 L 258,122 L 257,122 L 256,121 L 255,121 L 254,120 L 253,120 L 252,119 L 251,119 L 249,117 L 247,117 L 246,116 L 245,116 L 244,115 L 243,115 L 242,114 L 241,114 L 240,113 L 238,113 L 237,112 L 236,112 L 235,111 L 234,111 L 233,110 L 231,110 L 230,109 L 229,109 L 228,108 L 227,108 L 226,107 L 224,107 L 223,106 L 221,106 L 220,105 L 218,105 L 217,104 L 216,104 L 215,103 L 213,103 L 212,102 L 210,102 L 209,101 L 207,101 L 206,100 L 204,100 L 203,99 L 200,99 L 199,98 L 197,98 L 196,97 L 194,97 L 193,96 L 190,96 L 189,95 L 185,95 L 184,94 L 181,94 L 180,93 L 177,93 L 176,92 L 171,92 L 170,91 L 166,91 L 165,90 L 161,90 L 160,89 L 155,89 L 154,88 L 146,88 L 145,87 L 135,87 L 134,86 Z" fill="white"/></svg>